REM MD5 af9920308e0104e2ba3ca1d785269a1f
FILE "Command & Conquer - Red Alert & Bloody Roar (Europe).bin" BINARY
  TRACK 01 MODE2/2352
    INDEX 01 00:00:00
  TRACK 02 AUDIO
    INDEX 00 08:46:64
    INDEX 01 08:48:64
  TRACK 03 AUDIO
    INDEX 00 09:31:57
    INDEX 01 09:33:57
REM LEADOUT 13:19:25
